<?xml version="1.0" encoding="utf-8"?>
<!-- Generator: Adobe Illustrator 16.0.0, SVG Export Plug-In . SVG Version: 6.00 Build 0)  -->
<!DOCTYPE svg PUBLIC "-//W3C//DTD SVG 1.1//EN" "http://www.w3.org/Graphics/SVG/1.1/DTD/svg11.dtd">
<svg version="1.1" id="Layer_1" xmlns="http://www.w3.org/2000/svg" xmlns:xlink="http://www.w3.org/1999/xlink" x="0px" y="0px"
	 width="368.688px" height="584.849px" viewBox="0 0 368.688 584.849" enable-background="new 0 0 368.688 584.849"
	 xml:space="preserve">
<path id="logoSvg" fill="#111111" d="M355.024,268.729c-0.05-1.668-0.267-3.357-0.693-5.042c-1.386-5.486-8.157-37.483-9.269-45.618
	c0.133-7.142-2.994-14.237-9.041-18.934c-9.89-7.685-24.094-6.219-32.197,3.344c-9.277,10.938-27.902,17.083-44.339,22.504
	c-2.776,0.918-5.503,1.816-8.164,2.729c-0.305-0.647-0.636-1.304-0.948-1.954c-0.419-1.493-0.99-2.964-1.726-4.396
	c-2.947-5.745-6.169-11.683-9.569-17.653c-0.145-0.253-0.293-0.502-0.445-0.75l-0.721-1.158c-0.692-1.239-1.363-2.469-2.075-3.718
	c-0.662-1.164-1.432-2.23-2.25-3.235c-1.017-1.529-2.038-3.056-3.065-4.583c38.454-19.978,90.207-47.451,95.899-105.527
	c2.019-20.592-4.505-39.915-18.366-54.407c-15.477-16.175-39.129-25.094-63.219-23.772c-36.84,1.976-69.453,24.033-87.248,59.001
	c-16.722,32.855-16.36,71.016,0.689,101.154c-29.269,4.613-58.314-0.836-85.755-16.318c-11.257-6.354-25.526-2.371-31.874,8.88
	c-6.348,11.255-2.372,25.526,8.881,31.874c43.081,24.306,90.454,30.071,136.75,17.242c2.749,4.025,5.479,8.058,8.168,12.108
	l2.826,4.554c3.591,6.441,6.946,12.757,9.946,18.919c-12.067,3.496-24.878,6.499-38.081,9.593
	c-62.099,14.553-132.489,31.046-155.299,111.688c-7.582,26.817-3.888,54.982,10.396,79.309
	c14.551,24.779,39.049,42.83,67.214,49.521c10.979,2.612,22.449,3.899,34.128,3.899c21.417,0,43.542-4.341,64.609-12.863
	c82.271-33.253,100.394-126.179,82.415-198.45c-1.275-5.129-2.688-10.23-4.249-15.322c1.877-0.632,3.819-1.274,5.795-1.925
	c9.681-3.193,20.442-6.742,30.973-11.657c1.211,5.705,2.346,10.903,3.11,14.266c0.062,0.824,0.16,1.652,0.312,2.482
	c3.979,21.794,5.892,43.272,5.678,63.84c-0.696,67.335-26.429,125.714-68.835,156.179C181.206,540.646,113.2,536.75,74.27,512.423
	c-10.964-6.843-25.393-3.515-32.24,7.445c-6.851,10.956-3.519,25.393,7.441,32.243c28.021,17.506,58.954,24.875,89.766,24.875
	c48.812,0,97.324-18.492,133.448-44.452c54.456-39.113,87.477-111.525,88.33-193.701
	C361.246,316.129,359.221,292.555,355.024,268.729z M199.291,86.782c10.129-19.903,28.092-32.426,48.047-33.498
	c0.716-0.038,1.432-0.057,2.147-0.057c9.753,0,19.091,3.53,24.753,9.45c4.471,4.675,6.307,10.396,5.609,17.497
	c-3.043,31.048-31.82,48.272-72.148,69.217l-3.462,1.797c-0.095,0.05-0.194,0.101-0.286,0.15c-1.165-1.736-2.314-3.467-3.449-5.188
	C189.473,129.159,189.02,106.966,199.291,86.782z M172.641,441.736c-23.298,9.426-48.95,11.916-70.375,6.824
	c-15.822-3.762-29.555-13.854-37.681-27.692c-7.769-13.226-9.798-28.454-5.72-42.88c15.305-54.105,64.262-65.58,120.95-78.862
	c14.803-3.47,29.897-7.007,44.582-11.449c1.009,3.425,1.938,6.853,2.795,10.288C240.441,351.232,229.028,418.949,172.641,441.736z"
	/>
</svg>
